<mxfile host="65bd71144e">
    <diagram id="znXNAaHP0fcDoHxDMtyM" name="PÃ¡gina-1">
        <mxGraphModel dx="1275" dy="356" grid="1" gridSize="10" guides="1" tooltips="1" connect="1" arrows="1" fold="1" page="1" pageScale="1" pageWidth="827" pageHeight="1169" math="0" shadow="0">
            <root>
                <mxCell id="0"/>
                <mxCell id="1" parent="0"/>
                <mxCell id="98" style="edgeStyle=orthogonalEdgeStyle;html=1;exitX=0.5;exitY=1;exitDx=0;exitDy=0;entryX=0.5;entryY=0;entryDx=0;entryDy=0;fontColor=#000000;strokeColor=#000000;" edge="1" parent="1" source="3" target="25">
                    <mxGeometry relative="1" as="geometry"/>
                </mxCell>
                <mxCell id="3" value="INICIO" style="ellipse;whiteSpace=wrap;html=1;strokeColor=#000000;fontColor=#000000;fillColor=#FF9999;" parent="1" vertex="1">
                    <mxGeometry x="40" y="60" width="80" height="40" as="geometry"/>
                </mxCell>
                <mxCell id="100" style="edgeStyle=orthogonalEdgeStyle;html=1;exitX=0.5;exitY=1;exitDx=0;exitDy=0;entryX=0.5;entryY=0;entryDx=0;entryDy=0;fontColor=#000000;strokeColor=#000000;" edge="1" parent="1" source="5" target="8">
                    <mxGeometry relative="1" as="geometry"/>
                </mxCell>
                <mxCell id="5" value="x, y, opcion" style="shape=parallelogram;perimeter=parallelogramPerimeter;whiteSpace=wrap;html=1;fixedSize=1;strokeColor=#000000;fontColor=#000000;fillColor=#FFFF99;" parent="1" vertex="1">
                    <mxGeometry x="30" y="240" width="100" height="40" as="geometry"/>
                </mxCell>
                <mxCell id="101" style="edgeStyle=orthogonalEdgeStyle;html=1;exitX=1;exitY=0.5;exitDx=0;exitDy=0;entryX=0.5;entryY=0;entryDx=0;entryDy=0;fontColor=#000000;strokeColor=#000000;" edge="1" parent="1" source="8" target="26">
                    <mxGeometry relative="1" as="geometry"/>
                </mxCell>
                <mxCell id="102" style="edgeStyle=orthogonalEdgeStyle;html=1;exitX=0;exitY=0.5;exitDx=0;exitDy=0;entryX=0.5;entryY=0;entryDx=0;entryDy=0;fontColor=#000000;strokeColor=#000000;" edge="1" parent="1" source="8" target="11">
                    <mxGeometry relative="1" as="geometry"/>
                </mxCell>
                <mxCell id="8" value="opcion = 1" style="rhombus;whiteSpace=wrap;html=1;strokeColor=#000000;fontColor=#000000;fillColor=#CC99FF;" parent="1" vertex="1">
                    <mxGeometry x="40" y="320" width="80" height="80" as="geometry"/>
                </mxCell>
                <mxCell id="10" style="edgeStyle=none;html=1;exitX=1;exitY=0.5;exitDx=0;exitDy=0;entryX=0.5;entryY=0;entryDx=0;entryDy=0;fontColor=#000000;strokeColor=#000000;" parent="1" source="11" target="27" edge="1">
                    <mxGeometry relative="1" as="geometry">
                        <Array as="points">
                            <mxPoint x="80" y="440"/>
                        </Array>
                    </mxGeometry>
                </mxCell>
                <mxCell id="103" style="edgeStyle=orthogonalEdgeStyle;html=1;exitX=0;exitY=0.5;exitDx=0;exitDy=0;entryX=0.5;entryY=0;entryDx=0;entryDy=0;fontColor=#000000;strokeColor=#000000;" edge="1" parent="1" source="11" target="14">
                    <mxGeometry relative="1" as="geometry"/>
                </mxCell>
                <mxCell id="11" value="opcion = 2" style="rhombus;whiteSpace=wrap;html=1;strokeColor=#000000;fontColor=#000000;fillColor=#CC99FF;" parent="1" vertex="1">
                    <mxGeometry x="-60" y="400" width="80" height="80" as="geometry"/>
                </mxCell>
                <mxCell id="104" style="edgeStyle=orthogonalEdgeStyle;html=1;exitX=1;exitY=0.5;exitDx=0;exitDy=0;entryX=0.5;entryY=0;entryDx=0;entryDy=0;fontColor=#000000;strokeColor=#000000;" edge="1" parent="1" source="14" target="28">
                    <mxGeometry relative="1" as="geometry"/>
                </mxCell>
                <mxCell id="14" value="opcion = 3" style="rhombus;whiteSpace=wrap;html=1;strokeColor=#000000;fontColor=#000000;fillColor=#CC99FF;" parent="1" vertex="1">
                    <mxGeometry x="-160" y="480" width="80" height="80" as="geometry"/>
                </mxCell>
                <mxCell id="99" style="edgeStyle=orthogonalEdgeStyle;html=1;exitX=0.5;exitY=1;exitDx=0;exitDy=0;entryX=0.5;entryY=0;entryDx=0;entryDy=0;fontColor=#000000;strokeColor=#000000;" edge="1" parent="1" source="25" target="5">
                    <mxGeometry relative="1" as="geometry"/>
                </mxCell>
                <mxCell id="25" value="from math import log&lt;br&gt;bandera = False" style="whiteSpace=wrap;html=1;strokeColor=#000000;fontColor=#000000;fillColor=#9999FF;" parent="1" vertex="1">
                    <mxGeometry x="10" y="140" width="140" height="60" as="geometry"/>
                </mxCell>
                <mxCell id="26" value="r = x + y" style="whiteSpace=wrap;html=1;strokeColor=#000000;fontColor=#000000;fillColor=#9999FF;" parent="1" vertex="1">
                    <mxGeometry x="130" y="400" width="100" height="40" as="geometry"/>
                </mxCell>
                <mxCell id="27" value="r = x - y" style="whiteSpace=wrap;html=1;strokeColor=#000000;fontColor=#000000;fillColor=#9999FF;" parent="1" vertex="1">
                    <mxGeometry x="30" y="480" width="100" height="40" as="geometry"/>
                </mxCell>
                <mxCell id="28" value="r = x * y" style="whiteSpace=wrap;html=1;strokeColor=#000000;fontColor=#000000;fillColor=#9999FF;" parent="1" vertex="1">
                    <mxGeometry x="-70" y="560" width="100" height="40" as="geometry"/>
                </mxCell>
                <mxCell id="89" style="edgeStyle=none;html=1;exitX=1;exitY=0.5;exitDx=0;exitDy=0;entryX=0.5;entryY=0;entryDx=0;entryDy=0;fontColor=#000000;strokeColor=#000000;" parent="1" source="51" target="53" edge="1">
                    <mxGeometry relative="1" as="geometry">
                        <Array as="points">
                            <mxPoint x="200" y="1160"/>
                        </Array>
                    </mxGeometry>
                </mxCell>
                <mxCell id="134" style="edgeStyle=orthogonalEdgeStyle;html=1;exitX=0;exitY=0.5;exitDx=0;exitDy=0;entryX=0.5;entryY=0;entryDx=0;entryDy=0;fontColor=#000000;strokeColor=#000000;" edge="1" parent="1" source="51" target="133">
                    <mxGeometry relative="1" as="geometry"/>
                </mxCell>
                <mxCell id="51" value="bandera = False" style="rhombus;whiteSpace=wrap;html=1;strokeColor=#000000;fontColor=#000000;fillColor=#CC99FF;" parent="1" vertex="1">
                    <mxGeometry x="20" y="1120" width="120" height="80" as="geometry"/>
                </mxCell>
                <mxCell id="52" value="" style="endArrow=classic;html=1;entryX=0.5;entryY=0;entryDx=0;entryDy=0;fontColor=#000000;strokeColor=#000000;" parent="1" target="51" edge="1">
                    <mxGeometry width="50" height="50" relative="1" as="geometry">
                        <mxPoint x="80" y="1080" as="sourcePoint"/>
                        <mxPoint x="180" y="1140" as="targetPoint"/>
                    </mxGeometry>
                </mxCell>
                <mxCell id="53" value="r" style="shape=document;whiteSpace=wrap;html=1;boundedLbl=1;strokeColor=#000000;fontColor=#000000;fillColor=#FFFF99;" parent="1" vertex="1">
                    <mxGeometry x="160" y="1210" width="80" height="40" as="geometry"/>
                </mxCell>
                <mxCell id="55" value="FIN" style="ellipse;whiteSpace=wrap;html=1;strokeColor=#000000;fontColor=#000000;fillColor=#FF9999;" parent="1" vertex="1">
                    <mxGeometry x="40" y="1340" width="80" height="40" as="geometry"/>
                </mxCell>
                <mxCell id="58" value="True" style="text;html=1;align=center;verticalAlign=middle;resizable=0;points=[];autosize=1;strokeColor=none;fontColor=#000000;" parent="1" vertex="1">
                    <mxGeometry x="120" y="340" width="40" height="20" as="geometry"/>
                </mxCell>
                <mxCell id="59" value="False" style="text;html=1;align=center;verticalAlign=middle;resizable=0;points=[];autosize=1;strokeColor=none;fontColor=#000000;" parent="1" vertex="1">
                    <mxGeometry x="-10" y="340" width="50" height="20" as="geometry"/>
                </mxCell>
                <mxCell id="74" value="True" style="text;html=1;align=center;verticalAlign=middle;resizable=0;points=[];autosize=1;strokeColor=none;fontColor=#000000;" parent="1" vertex="1">
                    <mxGeometry x="140" y="1140" width="40" height="20" as="geometry"/>
                </mxCell>
                <mxCell id="93" value="False" style="text;html=1;align=center;verticalAlign=middle;resizable=0;points=[];autosize=1;strokeColor=none;fontColor=#000000;" parent="1" vertex="1">
                    <mxGeometry x="-30" y="1140" width="50" height="20" as="geometry"/>
                </mxCell>
                <mxCell id="94" value="" style="endArrow=classic;html=1;entryX=0.5;entryY=0;entryDx=0;entryDy=0;fontColor=#000000;strokeColor=#000000;" parent="1" edge="1">
                    <mxGeometry width="50" height="50" relative="1" as="geometry">
                        <mxPoint x="79.57" y="1300" as="sourcePoint"/>
                        <mxPoint x="79.57" y="1340" as="targetPoint"/>
                    </mxGeometry>
                </mxCell>
                <mxCell id="106" style="edgeStyle=orthogonalEdgeStyle;html=1;exitX=0;exitY=0.5;exitDx=0;exitDy=0;entryX=0.5;entryY=0;entryDx=0;entryDy=0;fontColor=#000000;strokeColor=#000000;" edge="1" parent="1" target="108">
                    <mxGeometry relative="1" as="geometry">
                        <mxPoint x="-160" y="520" as="sourcePoint"/>
                    </mxGeometry>
                </mxCell>
                <mxCell id="107" style="edgeStyle=orthogonalEdgeStyle;html=1;exitX=1;exitY=0.5;exitDx=0;exitDy=0;entryX=0.5;entryY=0;entryDx=0;entryDy=0;fontColor=#000000;strokeColor=#000000;" edge="1" parent="1" source="108" target="109">
                    <mxGeometry relative="1" as="geometry"/>
                </mxCell>
                <mxCell id="108" value="opcion = 4&lt;br&gt;and y != 0" style="rhombus;whiteSpace=wrap;html=1;strokeColor=#000000;fontColor=#000000;fillColor=#CC99FF;" vertex="1" parent="1">
                    <mxGeometry x="-260" y="560" width="80" height="80" as="geometry"/>
                </mxCell>
                <mxCell id="109" value="r = x / y" style="whiteSpace=wrap;html=1;strokeColor=#000000;fontColor=#000000;fillColor=#9999FF;" vertex="1" parent="1">
                    <mxGeometry x="-170" y="640" width="100" height="40" as="geometry"/>
                </mxCell>
                <mxCell id="110" style="edgeStyle=orthogonalEdgeStyle;html=1;exitX=0;exitY=0.5;exitDx=0;exitDy=0;entryX=0.5;entryY=0;entryDx=0;entryDy=0;fontColor=#000000;strokeColor=#000000;" edge="1" parent="1" target="112">
                    <mxGeometry relative="1" as="geometry">
                        <mxPoint x="-260" y="600" as="sourcePoint"/>
                    </mxGeometry>
                </mxCell>
                <mxCell id="111" style="edgeStyle=orthogonalEdgeStyle;html=1;exitX=1;exitY=0.5;exitDx=0;exitDy=0;entryX=0.5;entryY=0;entryDx=0;entryDy=0;fontColor=#000000;strokeColor=#000000;" edge="1" parent="1" source="112" target="113">
                    <mxGeometry relative="1" as="geometry"/>
                </mxCell>
                <mxCell id="112" value="opcion = 4&lt;br&gt;and y = 0" style="rhombus;whiteSpace=wrap;html=1;strokeColor=#000000;fontColor=#000000;fillColor=#CC99FF;" vertex="1" parent="1">
                    <mxGeometry x="-360" y="640" width="80" height="80" as="geometry"/>
                </mxCell>
                <mxCell id="113" value="bandera = True" style="whiteSpace=wrap;html=1;strokeColor=#000000;fontColor=#000000;fillColor=#9999FF;" vertex="1" parent="1">
                    <mxGeometry x="-270" y="720" width="100" height="40" as="geometry"/>
                </mxCell>
                <mxCell id="114" style="edgeStyle=orthogonalEdgeStyle;html=1;exitX=0;exitY=0.5;exitDx=0;exitDy=0;entryX=0.5;entryY=0;entryDx=0;entryDy=0;fontColor=#000000;strokeColor=#000000;" edge="1" parent="1" target="116">
                    <mxGeometry relative="1" as="geometry">
                        <mxPoint x="-360" y="680" as="sourcePoint"/>
                    </mxGeometry>
                </mxCell>
                <mxCell id="115" style="edgeStyle=orthogonalEdgeStyle;html=1;exitX=1;exitY=0.5;exitDx=0;exitDy=0;entryX=0.5;entryY=0;entryDx=0;entryDy=0;fontColor=#000000;strokeColor=#000000;" edge="1" parent="1" source="116" target="117">
                    <mxGeometry relative="1" as="geometry"/>
                </mxCell>
                <mxCell id="116" value="opcion = 5" style="rhombus;whiteSpace=wrap;html=1;strokeColor=#000000;fontColor=#000000;fillColor=#CC99FF;" vertex="1" parent="1">
                    <mxGeometry x="-460" y="720" width="80" height="80" as="geometry"/>
                </mxCell>
                <mxCell id="117" value="r = x ^ y" style="whiteSpace=wrap;html=1;strokeColor=#000000;fontColor=#000000;fillColor=#9999FF;" vertex="1" parent="1">
                    <mxGeometry x="-370" y="800" width="100" height="40" as="geometry"/>
                </mxCell>
                <mxCell id="118" style="edgeStyle=orthogonalEdgeStyle;html=1;exitX=0;exitY=0.5;exitDx=0;exitDy=0;entryX=0.5;entryY=0;entryDx=0;entryDy=0;fontColor=#000000;strokeColor=#000000;" edge="1" parent="1" target="120">
                    <mxGeometry relative="1" as="geometry">
                        <mxPoint x="-460" y="760" as="sourcePoint"/>
                    </mxGeometry>
                </mxCell>
                <mxCell id="119" style="edgeStyle=orthogonalEdgeStyle;html=1;exitX=1;exitY=0.5;exitDx=0;exitDy=0;entryX=0.5;entryY=0;entryDx=0;entryDy=0;fontColor=#000000;strokeColor=#000000;" edge="1" parent="1" source="120" target="121">
                    <mxGeometry relative="1" as="geometry"/>
                </mxCell>
                <mxCell id="125" style="edgeStyle=orthogonalEdgeStyle;html=1;exitX=0;exitY=0.5;exitDx=0;exitDy=0;entryX=0.5;entryY=0;entryDx=0;entryDy=0;fontColor=#000000;strokeColor=#000000;" edge="1" parent="1" source="120" target="124">
                    <mxGeometry relative="1" as="geometry"/>
                </mxCell>
                <mxCell id="120" value="opcion = 6&lt;br&gt;and x &amp;gt; 0" style="rhombus;whiteSpace=wrap;html=1;strokeColor=#000000;fontColor=#000000;fillColor=#CC99FF;" vertex="1" parent="1">
                    <mxGeometry x="-560" y="800" width="80" height="80" as="geometry"/>
                </mxCell>
                <mxCell id="121" value="r = log(x, y)" style="whiteSpace=wrap;html=1;strokeColor=#000000;fontColor=#000000;fillColor=#9999FF;" vertex="1" parent="1">
                    <mxGeometry x="-470" y="880" width="100" height="40" as="geometry"/>
                </mxCell>
                <mxCell id="124" value="bandera = True" style="whiteSpace=wrap;html=1;strokeColor=#000000;fontColor=#000000;fillColor=#9999FF;" vertex="1" parent="1">
                    <mxGeometry x="-670" y="880" width="100" height="40" as="geometry"/>
                </mxCell>
                <mxCell id="126" value="" style="endArrow=none;html=1;fontColor=#000000;strokeColor=#000000;entryX=0.5;entryY=1;entryDx=0;entryDy=0;exitX=0.5;exitY=1;exitDx=0;exitDy=0;" edge="1" parent="1" source="124" target="121">
                    <mxGeometry width="50" height="50" relative="1" as="geometry">
                        <mxPoint x="-490" y="990" as="sourcePoint"/>
                        <mxPoint x="-440" y="940" as="targetPoint"/>
                        <Array as="points">
                            <mxPoint x="-620" y="960"/>
                            <mxPoint x="-420" y="960"/>
                        </Array>
                    </mxGeometry>
                </mxCell>
                <mxCell id="127" value="" style="endArrow=none;html=1;fontColor=#000000;strokeColor=#000000;entryX=0.5;entryY=1;entryDx=0;entryDy=0;exitX=0.5;exitY=1;exitDx=0;exitDy=0;" edge="1" parent="1" target="117">
                    <mxGeometry width="50" height="50" relative="1" as="geometry">
                        <mxPoint x="-520" y="960" as="sourcePoint"/>
                        <mxPoint x="-320" y="960" as="targetPoint"/>
                        <Array as="points">
                            <mxPoint x="-520" y="980"/>
                            <mxPoint x="-320" y="980"/>
                        </Array>
                    </mxGeometry>
                </mxCell>
                <mxCell id="128" value="" style="endArrow=none;html=1;fontColor=#000000;strokeColor=#000000;entryX=0.5;entryY=1;entryDx=0;entryDy=0;" edge="1" parent="1" target="113">
                    <mxGeometry width="50" height="50" relative="1" as="geometry">
                        <mxPoint x="-420" y="980" as="sourcePoint"/>
                        <mxPoint x="-220" y="880" as="targetPoint"/>
                        <Array as="points">
                            <mxPoint x="-420" y="1000"/>
                            <mxPoint x="-220" y="1000"/>
                        </Array>
                    </mxGeometry>
                </mxCell>
                <mxCell id="129" value="" style="endArrow=none;html=1;fontColor=#000000;strokeColor=#000000;entryX=0.5;entryY=1;entryDx=0;entryDy=0;" edge="1" parent="1" target="109">
                    <mxGeometry width="50" height="50" relative="1" as="geometry">
                        <mxPoint x="-320" y="1000" as="sourcePoint"/>
                        <mxPoint x="-120" y="800" as="targetPoint"/>
                        <Array as="points">
                            <mxPoint x="-320" y="1020"/>
                            <mxPoint x="-120" y="1020"/>
                        </Array>
                    </mxGeometry>
                </mxCell>
                <mxCell id="130" value="" style="endArrow=none;html=1;fontColor=#000000;strokeColor=#000000;entryX=0.5;entryY=1;entryDx=0;entryDy=0;" edge="1" parent="1" target="28">
                    <mxGeometry width="50" height="50" relative="1" as="geometry">
                        <mxPoint x="-220" y="1020" as="sourcePoint"/>
                        <mxPoint x="-20" y="720" as="targetPoint"/>
                        <Array as="points">
                            <mxPoint x="-220" y="1040"/>
                            <mxPoint x="-20" y="1040"/>
                        </Array>
                    </mxGeometry>
                </mxCell>
                <mxCell id="131" value="" style="endArrow=none;html=1;fontColor=#000000;strokeColor=#000000;entryX=0.5;entryY=1;entryDx=0;entryDy=0;" edge="1" parent="1" target="27">
                    <mxGeometry width="50" height="50" relative="1" as="geometry">
                        <mxPoint x="-120" y="1040" as="sourcePoint"/>
                        <mxPoint x="80" y="640" as="targetPoint"/>
                        <Array as="points">
                            <mxPoint x="-120" y="1060"/>
                            <mxPoint x="80" y="1060"/>
                        </Array>
                    </mxGeometry>
                </mxCell>
                <mxCell id="132" value="" style="endArrow=none;html=1;fontColor=#000000;strokeColor=#000000;entryX=0.5;entryY=1;entryDx=0;entryDy=0;" edge="1" parent="1" target="26">
                    <mxGeometry width="50" height="50" relative="1" as="geometry">
                        <mxPoint x="-20" y="1060" as="sourcePoint"/>
                        <mxPoint x="180" y="560" as="targetPoint"/>
                        <Array as="points">
                            <mxPoint x="-20" y="1080"/>
                            <mxPoint x="180" y="1080"/>
                        </Array>
                    </mxGeometry>
                </mxCell>
                <mxCell id="133" value="&quot;Entrada invÃ¡lida.&quot;" style="shape=document;whiteSpace=wrap;html=1;boundedLbl=1;strokeColor=#000000;fontColor=#000000;fillColor=#FFFF99;" vertex="1" parent="1">
                    <mxGeometry x="-100" y="1200" width="120" height="60" as="geometry"/>
                </mxCell>
                <mxCell id="135" value="" style="endArrow=none;html=1;fontColor=#000000;strokeColor=#000000;" edge="1" parent="1" target="53">
                    <mxGeometry width="50" height="50" relative="1" as="geometry">
                        <mxPoint x="-40" y="1260" as="sourcePoint"/>
                        <mxPoint x="200" y="1260" as="targetPoint"/>
                        <Array as="points">
                            <mxPoint x="-40" y="1300"/>
                            <mxPoint x="200" y="1300"/>
                        </Array>
                    </mxGeometry>
                </mxCell>
                <mxCell id="136" value="True" style="text;html=1;align=center;verticalAlign=middle;resizable=0;points=[];autosize=1;strokeColor=none;fontColor=#000000;" vertex="1" parent="1">
                    <mxGeometry x="20" y="420" width="40" height="20" as="geometry"/>
                </mxCell>
                <mxCell id="137" value="False" style="text;html=1;align=center;verticalAlign=middle;resizable=0;points=[];autosize=1;strokeColor=none;fontColor=#000000;" vertex="1" parent="1">
                    <mxGeometry x="-110" y="420" width="50" height="20" as="geometry"/>
                </mxCell>
                <mxCell id="138" value="True" style="text;html=1;align=center;verticalAlign=middle;resizable=0;points=[];autosize=1;strokeColor=none;fontColor=#000000;" vertex="1" parent="1">
                    <mxGeometry x="-80" y="500" width="40" height="20" as="geometry"/>
                </mxCell>
                <mxCell id="139" value="False" style="text;html=1;align=center;verticalAlign=middle;resizable=0;points=[];autosize=1;strokeColor=none;fontColor=#000000;" vertex="1" parent="1">
                    <mxGeometry x="-210" y="500" width="50" height="20" as="geometry"/>
                </mxCell>
                <mxCell id="140" value="True" style="text;html=1;align=center;verticalAlign=middle;resizable=0;points=[];autosize=1;strokeColor=none;fontColor=#000000;" vertex="1" parent="1">
                    <mxGeometry x="-180" y="580" width="40" height="20" as="geometry"/>
                </mxCell>
                <mxCell id="141" value="False" style="text;html=1;align=center;verticalAlign=middle;resizable=0;points=[];autosize=1;strokeColor=none;fontColor=#000000;" vertex="1" parent="1">
                    <mxGeometry x="-310" y="580" width="50" height="20" as="geometry"/>
                </mxCell>
                <mxCell id="144" value="True" style="text;html=1;align=center;verticalAlign=middle;resizable=0;points=[];autosize=1;strokeColor=none;fontColor=#000000;" vertex="1" parent="1">
                    <mxGeometry x="-380" y="740" width="40" height="20" as="geometry"/>
                </mxCell>
                <mxCell id="145" value="False" style="text;html=1;align=center;verticalAlign=middle;resizable=0;points=[];autosize=1;strokeColor=none;fontColor=#000000;" vertex="1" parent="1">
                    <mxGeometry x="-510" y="740" width="50" height="20" as="geometry"/>
                </mxCell>
                <mxCell id="158" value="True" style="text;html=1;align=center;verticalAlign=middle;resizable=0;points=[];autosize=1;strokeColor=none;fontColor=#000000;" vertex="1" parent="1">
                    <mxGeometry x="-480" y="820" width="40" height="20" as="geometry"/>
                </mxCell>
                <mxCell id="159" value="False" style="text;html=1;align=center;verticalAlign=middle;resizable=0;points=[];autosize=1;strokeColor=none;fontColor=#000000;" vertex="1" parent="1">
                    <mxGeometry x="-610" y="820" width="50" height="20" as="geometry"/>
                </mxCell>
            </root>
        </mxGraphModel>
    </diagram>
</mxfile>